# xmcd
# 
# Track frame offsets:
#     150
#     17612
#     35417
#     54875
#     71330
#     88260
#     112460
#     127575
#     144620
#     158480
#     177652
#     192257
#     216512
#     235702
#     253487
#     270472
#     284375
#     300967
#     320782
# 
# Disc length: 4747
# 
# Revision: 7
# Processed by: cddbd v1.5.2PL0 Copyright (c) Steve Scherf et al.
# Submitted via: BonkEnc v1.0.8
# 
DISCID=16128913
DTITLE=Female Vocal Collection - Love&Fight
DYEAR=2003
DGENRE=Pop
TTITLE0=Dancing Queen
TTITLE1=Girls Just Want to Have Fun
TTITLE2=I Love Your Smile
TTITLE3=Cartoon Heroes
TTITLE4=Physical
TTITLE5=One of Us
TTITLE6=Morning Train (Nine to Five)
TTITLE7=Breakout
TTITLE8=Manic Monday
TTITLE9=Do That to Me One More Time
TTITLE10=Lovefool
TTITLE11=Never Knew Love Like This Before
TTITLE12=You Keep Me Hangin' on
TTITLE13=i've Never Been to Me
TTITLE14=I Think We're Alone Now
TTITLE15=Stay
TTITLE16=Save the Best for Last
TTITLE17=夢中人
TTITLE18=Funkytown
EXTD=YEAR: 2003
EXTT0=
EXTT1=
EXTT2=
EXTT3=
EXTT4=
EXTT5=
EXTT6=
EXTT7=
EXTT8=
EXTT9=
EXTT10=
EXTT11=
EXTT12=
EXTT13=
EXTT14=
EXTT15=
EXTT16=
EXTT17=
EXTT18=
PLAYORDER=
